<?xml version="1.0" encoding="utf-8"?>
<!-- Generator: Adobe Illustrator 25.2.1, SVG Export Plug-In . SVG Version: 6.00 Build 0)  -->
<svg version="1.1" id="Capa_1" xmlns="http://www.w3.org/2000/svg" xmlns:xlink="http://www.w3.org/1999/xlink" x="0px" y="0px"
	 viewBox="0 0 1080 1080" style="enable-background:new 0 0 1080 1080;" xml:space="preserve">
<path d="M819.2,568.51c-34.99-1.55-71.11,0.38-106.06,2.24c-20.96,1.12-41.93,2.23-62.89,2.67c-16.23,0.35-31.46-4.02-44.64-8.14
	c-11.89-3.72-12.34-16.6-12.48-20.82c-0.35-10.32,0.55-24.55,12.41-29.2c13.01-5.08,26.66-6.81,39.48-7.95
	c5.96-0.53,11.5-0.9,16.23-0.54c2.59,0.19,4.97,0.34,6.83,0.38c21.77,0.4,43.09,1.18,64.97,0.86
	c50.12-0.73,101.94-1.49,150.68-10.51c70.48-13.02,115.98-86.19,112.73-143.72c-3.33-58.66-37.5-90.46-117.9-109.77
	c-21.28-5.11-41.25-30.56-45.89-50.2c-15.33-65.13-54.82-105.61-108.31-111.06c-49.09-5.02-102.54,29.79-126.85,82.8
	c-35.89,78.26-32.39,161.72-25.74,240.49c0.39,4.57,1.15,9.18,1.89,13.77c1.7,10.62,3.47,21.61,1.91,33.24
	c-1.94,14.25-19.29,32.78-35.08,32.96c-0.08,0-0.17,0-0.25,0c-16.01,0-33.6-18.15-35.62-32.36c-1.64-11.74,0.11-22.83,1.8-33.55
	c0.73-4.54,1.45-9.09,1.85-13.61c6.61-79.24,10.1-163.1-25.48-240.51c-24.8-53.95-76.82-88.23-126.64-83.23
	c-57.34,5.69-97.96,47.51-105.99,109.12c-6.1,47.06-35.92,51.38-62.22,55.19l-3.08,0.45c-42.94,6.32-76.73,31.12-92.68,68.05
	c-16.11,37.24-10.92,79.28,14.21,115.32c36.16,51.84,88.84,78.77,156.58,80.03c34.44,0.63,69.74-0.58,103.89-1.75
	c21.97-0.75,43.96-1.5,65.94-1.8c13.44-0.08,27.45,2.4,41.13,7.45c11.75,4.34,12.98,17.62,12.73,28.71
	c-0.09,4.82-0.38,17.6-12.35,21.42c-13.2,4.21-28.62,8.7-44.66,8.34c-20.95-0.41-41.9-1.51-62.85-2.61
	c-25.59-1.34-51.82-2.72-77.75-2.72c-9.48,0-18.93,0.18-28.28,0.62c-68.27,3.19-120.44,31.25-155.05,83.38
	C81.18,688.9,76.23,730.77,92.1,766.81c15.33,34.82,48.13,58.53,90,65.06c45.86,7.17,65.61,27.09,70.47,71.07
	c6.28,56.9,48.3,80.08,82.46,89.51c50.04,13.79,92.87,0.42,120.66-37.69c25.54-35.02,40.68-68,43.82-95.38
	c7.29-63.62,5.93-129.84,4.61-193.9l-0.35-17.14c-0.36-18.86,0.49-38.13,15.14-48.26c14.59-10.06,32.34-10.39,46.7-2.42
	c2.98,1.65,7.31,5.33,9.53,9.71c3.03,5.96,0.77,30.35,0.77,30.35c-1.59,13.24-3.17,26.41-4.32,39.61
	c-8.38,96.67-6.26,176.13,31.27,249.69c25.05,49.14,75.67,76.1,129.09,68.73c52.69-7.3,90.67-46.13,96.76-98.94
	c5.81-50.42,34.99-59.18,69.66-64.8c41.71-6.75,74.39-30.73,89.66-65.79c15.74-36.15,10.73-77.89-13.76-114.55
	C939.42,599.5,887.23,571.52,819.2,568.51z"/>
</svg>
